<svg xmlns="http://www.w3.org/2000/svg" width="47.969" height="58.938" viewBox="0 0 47.969 58.938">
  <metadata><?xpacket begin="﻿" id="W5M0MpCehiHzreSzNTczkc9d"?>
<x:xmpmeta xmlns:x="adobe:ns:meta/" x:xmptk="Adobe XMP Core 5.6-c138 79.159824, 2016/09/14-01:09:01        ">
   <rdf:RDF xmlns:rdf="http://www.w3.org/1999/02/22-rdf-syntax-ns#">
      <rdf:Description rdf:about=""/>
   </rdf:RDF>
</x:xmpmeta>
                                                                                                    
                                                                                                    
                                                                                                    
                                                                                                    
                                                                                                    
                                                                                                    
                                                                                                    
                                                                                                    
                                                                                                    
                                                                                                    
                                                                                                    
                                                                                                    
                                                                                                    
                                                                                                    
                                                                                                    
                                                                                                    
                                                                                                    
                                                                                                    
                                                                                                    
                                                                                                    
                           
<?xpacket end="w"?></metadata>
<defs>
    <style>
      .cls-1 {
        fill: #fff;
        fill-rule: evenodd;
      }
    </style>
  </defs>
  <path id="Forma_1" data-name="Forma 1" class="cls-1" d="M29.975,34.723A24.137,24.137,0,0,0,5.987,58.958H11.76a18.214,18.214,0,1,1,36.428,0H53.96A24.136,24.136,0,0,0,29.975,34.723Zm0-1.939c8.731,0,15.834-7.353,15.834-16.379S38.706,0.03,29.975.03,14.147,7.376,14.147,16.4,21.25,32.784,29.975,32.784ZM29.975,6A10.249,10.249,0,0,1,40.036,16.4,10.248,10.248,0,0,1,29.975,26.813,10.249,10.249,0,0,1,19.917,16.4,10.246,10.246,0,0,1,29.975,6Z" transform="translate(-6 -0.031)"/>
</svg>
