<svg xmlns="http://www.w3.org/2000/svg" width="59" height="59" viewBox="0 0 59 59">
  <metadata><?xpacket begin="﻿" id="W5M0MpCehiHzreSzNTczkc9d"?>
<x:xmpmeta xmlns:x="adobe:ns:meta/" x:xmptk="Adobe XMP Core 5.6-c138 79.159824, 2016/09/14-01:09:01        ">
   <rdf:RDF xmlns:rdf="http://www.w3.org/1999/02/22-rdf-syntax-ns#">
      <rdf:Description rdf:about=""/>
   </rdf:RDF>
</x:xmpmeta>
                                                                                                    
                                                                                                    
                                                                                                    
                                                                                                    
                                                                                                    
                                                                                                    
                                                                                                    
                                                                                                    
                                                                                                    
                                                                                                    
                                                                                                    
                                                                                                    
                                                                                                    
                                                                                                    
                                                                                                    
                                                                                                    
                                                                                                    
                                                                                                    
                                                                                                    
                                                                                                    
                           
<?xpacket end="w"?></metadata>
<defs>
    <style>
      .cls-1 {
        fill: #fff;
        fill-rule: evenodd;
      }
    </style>
  </defs>
  <path id="Forma_1" data-name="Forma 1" class="cls-1" d="M48.813,33.184a5.188,5.188,0,0,0,4.7-3.548l5.349-18.719a2.638,2.638,0,0,0-2.675-3.545H18.436A7.375,7.375,0,0,0,11.061,0H0V7.371H11.061V38.716a5.532,5.532,0,0,0,5.531,5.531H51.623a3.688,3.688,0,0,0,0-7.376H18.436V33.184H48.813ZM18.436,14.747H51.786L48.624,25.809H18.436V14.747Zm3.688,39.641A4.622,4.622,0,0,1,17.515,59H15.671a4.622,4.622,0,0,1-4.609-4.607V52.543a4.622,4.622,0,0,1,4.609-4.608h1.844a4.622,4.622,0,0,1,4.609,4.608v1.845Zm33.187,0A4.622,4.622,0,0,1,50.7,59H48.858a4.622,4.622,0,0,1-4.609-4.607V52.543a4.622,4.622,0,0,1,4.609-4.608H50.7a4.622,4.622,0,0,1,4.609,4.608v1.845Z"/>
</svg>
